<svg xmlns="http://www.w3.org/2000/svg" viewBox="0 0 504.109 177.839"><defs><style>.a{fill:red;}.b{fill:#fff;}</style></defs><path class="a" d="M59.4,179.5,33.753,71.24,6.655,84.459Z" transform="translate(-6.655 -1.661)"/><path class="a" d="M60.72,179.5,86.364,71.24l27.1,13.219Z" transform="translate(-6.655 -1.661)"/><path class="a" d="M62.967,96.093a2.908,2.908,0,1,1-2.909-2.909,2.909,2.909,0,0,1,2.909,2.909" transform="translate(-6.655 -1.661)"/><path class="a" d="M62.967,111.687a2.908,2.908,0,1,1-2.909-2.908,2.909,2.909,0,0,1,2.909,2.908" transform="translate(-6.655 -1.661)"/><path class="a" d="M62.967,127.419a2.908,2.908,0,1,1-2.909-2.909,2.909,2.909,0,0,1,2.909,2.909" transform="translate(-6.655 -1.661)"/><path class="b" d="M181.561,79.266a13.106,13.106,0,0,1,3.779,3.99,9.164,9.164,0,0,1,1.248,4.659,10.814,10.814,0,0,1-3.129,7.453q-3.831,4.218-11.531,4.57-4.254.211-11.953.211h-17.4l.035-1.652.07-6.821.106-13.429-.141-14.625-.07-11.461h18.844q7.065,0,9.72.228A25.763,25.763,0,0,1,176.6,53.5a20.438,20.438,0,0,1,5.59,2.777,15.317,15.317,0,0,1,4.043,4.008,13.556,13.556,0,0,1,2.25,7.629,12.916,12.916,0,0,1-1.863,6.855A11.215,11.215,0,0,1,181.561,79.266Zm-2.848.914a13.771,13.771,0,0,1-2.812.317,9.491,9.491,0,0,1-4.483-.914,2.712,2.712,0,0,1-1.705-2.391q0-.808.563-.809a2.96,2.96,0,0,1,1.16.352,11.479,11.479,0,0,0,5.273,1.23,8.7,8.7,0,0,0,7.805-4.078,10.442,10.442,0,0,0,1.688-5.871,11.289,11.289,0,0,0-3.9-8.613,16.5,16.5,0,0,0-6.627-3.762,34.009,34.009,0,0,0-9.65-1.16h-1.934l-.211,21.094.211,22.254,3.164.035a44.281,44.281,0,0,0,8.157-.58A12.18,12.18,0,0,0,180.26,95.3a8.923,8.923,0,0,0,4.008-7.453,7,7,0,0,0-1.389-4.2A12.621,12.621,0,0,0,178.713,80.18Z" transform="translate(-6.655 -1.661)"/><path class="b" d="M219.108,76.735V72.446q-.034-4.464-.141-5.485a4.068,4.068,0,0,0-.633-1.828q-1.269-1.968-5.916-1.968-7.184,0-11.092,4.5-1.584,1.827-2.676,1.828a1.991,1.991,0,0,1-1.409-.563,1.734,1.734,0,0,1-.6-1.3q0-2.214,5.238-4.57,4.992-2.248,12.9-2.25,13.007,0,18.352,3.938a8.019,8.019,0,0,1,3.023,3.867,27.582,27.582,0,0,1,.7,7.558V90.129a28.368,28.368,0,0,0,.229,5.819,13.56,13.56,0,0,0,1.67,4.2H219.073V96.458a27.872,27.872,0,0,1-6.416,3.339,18.751,18.751,0,0,1-6.276,1.125,15.119,15.119,0,0,1-9.316-3.058,12.459,12.459,0,0,1-5.309-10.406,11.2,11.2,0,0,1,4.295-9.141A18.854,18.854,0,0,1,208.442,74.2a23.524,23.524,0,0,1,5.35.545A26.437,26.437,0,0,1,219.108,76.735Zm0,2.531q-4.43-2.214-6.855-2.215a2.569,2.569,0,0,0-2.672,1.617,20.239,20.239,0,0,0-.352,5.1v8.4a23.476,23.476,0,0,0,.176,3.375q.351,1.618,2.391,1.618a8.351,8.351,0,0,0,3.6-.967,14.292,14.292,0,0,0,3.639-2.549Z" transform="translate(-6.655 -1.661)"/><path class="b" d="M261.366,69.387V92.872l-.035,2.25a5.236,5.236,0,0,0,.545,2.9,2.65,2.65,0,0,0,2.2.721,15.036,15.036,0,0,0,8.156-2.549,20,20,0,0,0,6.54-6.838q.771-1.3,1.511-1.3a1.3,1.3,0,0,1,.967.475,1.46,1.46,0,0,1,.44,1q0,1.265-2.04,3.568a24.9,24.9,0,0,1-4.746,4.131,20.861,20.861,0,0,1-11.812,3.691,19.839,19.839,0,0,1-14.238-5.343,19.428,19.428,0,0,1-6.4-14.731,19.167,19.167,0,0,1,6.75-14.976,20.174,20.174,0,0,1,13.957-5.063,21.21,21.21,0,0,1,11.567,3.129,15.707,15.707,0,0,1,3.445,2.865,4.357,4.357,0,0,1,1.336,2.584,1.193,1.193,0,0,1-.387.9,1.326,1.326,0,0,1-.949.369q-.738,0-1.863-1.688a13.126,13.126,0,0,0-5.1-4.095,14.745,14.745,0,0,0-6.574-1.741q-2.076,0-2.672,1.161T261.366,69.387Z" transform="translate(-6.655 -1.661)"/><path class="b" d="M315.938,69.08l4,6.649,3.823,6.475q5.646,9.36,7.7,12.368a40.364,40.364,0,0,0,4.578,5.577H315.125l-6.487-11.356q-3.579-6.362-5.471-9.21V81.2l.035,6.328.07,10.969.036,1.652H285.272L285.44,83.2l.043-9.774-.169-19.617-.042-1.652h18.036l-.141,23.1v1.9q9.794-8.824,13.516-11.567,4.843-3.656,8.461-3.656,2.7,0,2.7,1.969a1.571,1.571,0,0,1-.492,1.178,1.69,1.69,0,0,1-1.224.474,3.327,3.327,0,0,1-.982-.176,5.966,5.966,0,0,0-1.5-.281,6.788,6.788,0,0,0-3.118.856A34.056,34.056,0,0,0,315.938,69.08Z" transform="translate(-6.655 -1.661)"/><path class="b" d="M364.32,79.276q6.9-10.5,10.048-15.964a23.07,23.07,0,0,1,1.4-2.186,1.02,1.02,0,0,1,.806-.317,1.8,1.8,0,0,1,1.263.527,1.607,1.607,0,0,1,.561,1.2,2.18,2.18,0,0,1-.6,1.265q-5.059,6.894-12.825,18.708l-6.183,9.46a50.722,50.722,0,0,1-5.274,6.994,12.5,12.5,0,0,1-3.677,2.457,10.082,10.082,0,0,1-4.1.948,6.067,6.067,0,0,1-3.184-.756,2.213,2.213,0,0,1-1.249-1.916,1.675,1.675,0,0,1,.562-1.266,1.93,1.93,0,0,1,1.371-.527,7.143,7.143,0,0,1,2.32.809,4.722,4.722,0,0,0,1.934.527,5.26,5.26,0,0,0,3.006-.967,14.337,14.337,0,0,0,3.111-3.182l-4.148-6.5q-13.4-20.812-17.9-26.825h22.34a96.778,96.778,0,0,0,4.852,9.217A87.8,87.8,0,0,0,364.32,79.276Z" transform="translate(-6.655 -1.661)"/><path class="b" d="M403.5,76.735V72.446q-.036-4.464-.142-5.485a4.067,4.067,0,0,0-.632-1.828q-1.269-1.968-5.916-1.968-7.185,0-11.092,4.5-1.586,1.827-2.676,1.828a1.991,1.991,0,0,1-1.409-.563,1.734,1.734,0,0,1-.6-1.3q0-2.214,5.238-4.57,4.992-2.248,12.9-2.25,13.007,0,18.351,3.938a8.021,8.021,0,0,1,3.024,3.867,27.622,27.622,0,0,1,.7,7.558V90.129a28.311,28.311,0,0,0,.228,5.819,13.56,13.56,0,0,0,1.67,4.2H403.468V96.458a27.872,27.872,0,0,1-6.416,3.339,18.751,18.751,0,0,1-6.276,1.125,15.117,15.117,0,0,1-9.316-3.058,12.459,12.459,0,0,1-5.309-10.406,11.2,11.2,0,0,1,4.294-9.141A18.859,18.859,0,0,1,392.837,74.2a23.531,23.531,0,0,1,5.35.545A26.459,26.459,0,0,1,403.5,76.735Zm0,2.531q-4.429-2.214-6.856-2.215a2.567,2.567,0,0,0-2.671,1.617,20.187,20.187,0,0,0-.352,5.1v8.4a23.16,23.16,0,0,0,.176,3.375q.349,1.618,2.39,1.618a8.351,8.351,0,0,0,3.6-.967,14.327,14.327,0,0,0,3.639-2.549Z" transform="translate(-6.655 -1.661)"/><path class="b" d="M447.237,72.657l-.07,13.5.141,13.992H429.237l.042-1.934.042-7.172.127-12.9L429.279,63.8l-.042-2.039h18.035V69a49.864,49.864,0,0,1,5.614-5.414,12.128,12.128,0,0,1,6.876-2.566,5.788,5.788,0,0,1,3.246.844,2.5,2.5,0,0,1,1.28,2.144,2.138,2.138,0,0,1-.772,1.688,2.847,2.847,0,0,1-1.93.668,3.987,3.987,0,0,1-1.648-.422,6.269,6.269,0,0,0-2.562-.738,8.145,8.145,0,0,0-4.876,1.722A26.443,26.443,0,0,0,447.237,72.657Z" transform="translate(-6.655 -1.661)"/><path class="b" d="M510.765,52.161l-.071,17.191-.035,12.164.106,17.051v1.582H492.8v-4.57a19.779,19.779,0,0,1-5.572,4.113,14.515,14.515,0,0,1-6.1,1.23A16.809,16.809,0,0,1,469.245,96a20.317,20.317,0,0,1-6.433-15.433,18.988,18.988,0,0,1,6.222-14.731,17.965,17.965,0,0,1,12.41-5.027,15.656,15.656,0,0,1,5.924,1.16,19.832,19.832,0,0,1,5.537,3.481l-.14-13.289Zm-17.86,16.172a27.9,27.9,0,0,0-4.939-3.727,8.193,8.193,0,0,0-3.885-1.231,1.822,1.822,0,0,0-1.81.967,9.347,9.347,0,0,0-.475,3.639l.035,1.547V93.153a17.9,17.9,0,0,0,.246,3.551,1.913,1.913,0,0,0,2.039,1.511,6.771,6.771,0,0,0,3.727-1.318,33.058,33.058,0,0,0,5.062-4.588Z" transform="translate(-6.655 -1.661)"/><path class="b" d="M157.808,40.543l-.273,1.113a10.8,10.8,0,0,1-2.207.293q-.821,0-2.715-.176-1.426-.117-2.559-.117a23.95,23.95,0,0,0-4.023.352l.273-1.074a6.232,6.232,0,0,0,2.871-.821,3.442,3.442,0,0,0,1.1-1.533q.458-1.084,2.08-7.568l2.5-10.352.137-.488q-1.154-.059-1.739-.059a17,17,0,0,0-5.732.783,6.573,6.573,0,0,0-3.184,2.27,5.4,5.4,0,0,0-1.064,3.208,2.82,2.82,0,0,0,.215,1.115,5.406,5.406,0,0,0,.859,1.136,2.076,2.076,0,0,1,.664,1.33,1.2,1.2,0,0,1-.39.9,1.314,1.314,0,0,1-.938.372,1.528,1.528,0,0,1-1.328-.782,5.311,5.311,0,0,1-.742-2.929,8.328,8.328,0,0,1,1.474-4.629,9.756,9.756,0,0,1,4.053-3.477,14.478,14.478,0,0,1,6.27-1.23,48.112,48.112,0,0,1,5.605.508,35.2,35.2,0,0,0,3.965.351,2.818,2.818,0,0,0,1.738-.41,1.334,1.334,0,0,0,.508-1.094,4.934,4.934,0,0,0-.059-.547,3.993,3.993,0,0,1-.058-.488,1.192,1.192,0,0,1,.351-.879,1.149,1.149,0,0,1,.84-.351,1.236,1.236,0,0,1,.967.429,1.676,1.676,0,0,1,.381,1.153,3.078,3.078,0,0,1-1.58,2.558q-1.581,1.074-5.287,1.074-1.327,0-2.829-.117-.195.7-1.233,4.766l-1.7,6.758-1.038,4.121-1.076,4.707a18.93,18.93,0,0,0,2.168.156A12.02,12.02,0,0,0,157.808,40.543Z" transform="translate(-6.655 -1.661)"/><path class="b" d="M177.455,37.516l.507.722a17.264,17.264,0,0,1-3.691,3.164,4.345,4.345,0,0,1-2.129.8,1.322,1.322,0,0,1-1.1-.547,2.778,2.778,0,0,1-.42-1.7,11.746,11.746,0,0,1,.322-2.275q.323-1.494,1.826-6.416a19.782,19.782,0,0,0,.664-2.832q0-.626-.666-.625a4.015,4.015,0,0,0-2.057.818,12.3,12.3,0,0,0-3.055,2.883,8.933,8.933,0,0,0-1.352,3.325l-1.542,6.821h-2.91q.938-3.414,1.445-5.58l2.872-12.525a15.679,15.679,0,0,1,2.06-5.344,9.414,9.414,0,0,1,3.34-2.992,8.49,8.49,0,0,1,4.072-1.117,1.976,1.976,0,0,1,1.328.416,1.319,1.319,0,0,1,.489,1.049,1.211,1.211,0,0,1-.479.941,1.949,1.949,0,0,1-1.3.406,9.333,9.333,0,0,1-1.213-.1,18.883,18.883,0,0,0-2.327-.248,1.778,1.778,0,0,0-1.467.726A10.231,10.231,0,0,0,169.5,20.7l-2.179,9.641a25.2,25.2,0,0,1,5.065-4.115,5.382,5.382,0,0,1,2.581-1,1.575,1.575,0,0,1,1.193.449,1.732,1.732,0,0,1,.43,1.251,5.736,5.736,0,0,1-.157,1.328q-.254,1.152-1.195,4.18-1.274,4.179-1.5,5.2a8.5,8.5,0,0,0-.225,1.816.827.827,0,0,0,.108.469.363.363,0,0,0,.322.156q.468,0,1.758-1.113Q176.419,38.357,177.455,37.516Z" transform="translate(-6.655 -1.661)"/><path class="b" d="M189.523,36.754l.644.859q-4.785,4.551-8.2,4.551a2.528,2.528,0,0,1-2.119-.937,4.913,4.913,0,0,1-.732-3.008,15.791,15.791,0,0,1,2.539-8.321q2.852-4.706,6.816-4.707a2.967,2.967,0,0,1,2.119.694,2.494,2.494,0,0,1,.733,1.9,4.263,4.263,0,0,1-.879,2.5,10.19,10.19,0,0,1-3.145,2.559q-1.132.644-4.843,2.324a12.164,12.164,0,0,0-.176,2.012,3.172,3.172,0,0,0,.439,1.933,1.545,1.545,0,0,0,1.28.547,4.17,4.17,0,0,0,1.757-.449A24.721,24.721,0,0,0,189.523,36.754Zm-6.836-2.832a15.359,15.359,0,0,0,4.727-3.027,3.323,3.323,0,0,0,1.074-2.247,1.949,1.949,0,0,0-.44-1.337,1.451,1.451,0,0,0-1.142-.5,2.232,2.232,0,0,0-1.406.546,5.4,5.4,0,0,0-1.543,2.188A19.634,19.634,0,0,0,182.687,33.922Z" transform="translate(-6.655 -1.661)"/><path class="b" d="M181.661,141.586a13.106,13.106,0,0,1,3.779,3.99,9.163,9.163,0,0,1,1.248,4.658,10.813,10.813,0,0,1-3.128,7.454q-3.833,4.218-11.532,4.57-4.254.21-11.953.211h-17.4l.035-1.653.07-6.82.106-13.43-.141-14.625-.07-11.461h18.844q7.067,0,9.72.229a25.822,25.822,0,0,1,5.467,1.107,20.441,20.441,0,0,1,5.59,2.778,15.3,15.3,0,0,1,4.043,4.008,13.555,13.555,0,0,1,2.25,7.628,12.917,12.917,0,0,1-1.863,6.856A11.215,11.215,0,0,1,181.661,141.586Zm-2.848.914a13.766,13.766,0,0,1-2.812.316,9.472,9.472,0,0,1-4.482-.914,2.709,2.709,0,0,1-1.706-2.39q0-.808.563-.809a2.96,2.96,0,0,1,1.16.352,11.493,11.493,0,0,0,5.274,1.23,8.694,8.694,0,0,0,7.8-4.078,10.442,10.442,0,0,0,1.688-5.871,11.288,11.288,0,0,0-3.9-8.613,16.485,16.485,0,0,0-6.627-3.762,34.009,34.009,0,0,0-9.65-1.16h-1.934l-.21,21.094.21,22.253,3.165.036a44.276,44.276,0,0,0,8.156-.58,12.18,12.18,0,0,0,4.851-1.987,8.924,8.924,0,0,0,4.008-7.453,7,7,0,0,0-1.389-4.2A12.61,12.61,0,0,0,178.813,142.5Z" transform="translate(-6.655 -1.661)"/><path class="b" d="M240.442,124.078l-.105,27.633.105,10.758h-18v-4.957a37.289,37.289,0,0,1-8.129,4.394,22.233,22.233,0,0,1-7.671,1.336q-7.339,0-10.64-4.359a9.539,9.539,0,0,1-1.7-3.674,27.627,27.627,0,0,1-.474-5.854l.071-8.226.035-5.484-.176-11.567h18l-.211,17.649.035,6.679.035,4.5q0,4.044.492,4.852a2.491,2.491,0,0,0,2.25.914,7.994,7.994,0,0,0,3.5-.879,28.486,28.486,0,0,0,4.694-3.129l.035-4.6.07-12.551-.211-12.34v-1.09Z" transform="translate(-6.655 -1.661)"/><path class="b" d="M267.97,111.7l-.387,11.356-.035,1.089q3.058,0,5.555-.246.421-.034.738-.035,1.547,0,1.547,1.425,0,1.317-1.617,1.317-.493,0-1.231-.07-2.778-.212-3.973-.211h-1.019l-.035,6.811.12,13.657.091,7.306a11.371,11.371,0,0,0,.388,3.586,1.373,1.373,0,0,0,1.344,1.019,4.029,4.029,0,0,0,2.721-1.477,10.584,10.584,0,0,0,2.226-3.621q.74-2.039,1.758-2.039,1.2,0,1.195,1.336a6.864,6.864,0,0,1-1.195,3.323,14.494,14.494,0,0,1-2.883,3.462,15.763,15.763,0,0,1-10.757,3.622q-6.224,0-9.633-3.759a10.359,10.359,0,0,1-2.426-4.232,24.642,24.642,0,0,1-.668-6.48v-2.634l.035-7.412V126.223q-.492-.034-.7-.035-.351,0-1.406.07-.879.071-1.477.07-1.722,0-1.722-1.319,0-1.283,1.652-1.282c.515,0,.879.012,1.09.035l2.566.176v-3.973A111.508,111.508,0,0,0,267.97,111.7Z" transform="translate(-6.655 -1.661)"/><path class="b" d="M297.712,114.48l.035,1.793-.07,12.375-.035,5.344-.071,9.738.141,17.368v1.371H279.747v-1.653l.085-5.589.042-10.125.084-13.254-.035-7.137-.106-7.84.036-2.391Z" transform="translate(-6.655 -1.661)"/><path class="b" d="M319.9,144.4v10.9a12.371,12.371,0,0,0,.386,4.008q.738,1.617,3.481,1.617a16.362,16.362,0,0,0,8.068-2.233,21.832,21.832,0,0,0,6.908-6.169,10.913,10.913,0,0,1,1.371-1.653,1.4,1.4,0,0,1,.914-.351,1.254,1.254,0,0,1,.985.439,1.618,1.618,0,0,1,.387,1.108q0,1.476-2.356,3.972a23.747,23.747,0,0,1-7.682,5.2,22.266,22.266,0,0,1-8.947,2,20.131,20.131,0,0,1-19.933-19.9,20.368,20.368,0,0,1,1.406-7.33,19.572,19.572,0,0,1,3.867-6.346,19.99,19.99,0,0,1,14.766-6.539,19.563,19.563,0,0,1,11.777,3.832q8.226,5.978,8.156,17.332h-8.191l-10.547.035Zm9-2.32V131.834q-.071-3.3-.141-3.946a2.431,2.431,0,0,0-.492-1.211q-.985-1.368-4.008-1.368-3.094,0-3.867,1.578-.492.948-.492,4.947v10.244l4.289.141Z" transform="translate(-6.655 -1.661)"/><path class="b" d="M366.97,134.977l-.071,13.5.141,13.992H348.97l.043-1.934.042-7.172.126-12.9-.168-14.344-.043-2.039h18.035v7.242a49.885,49.885,0,0,1,5.613-5.414,12.136,12.136,0,0,1,6.877-2.566,5.778,5.778,0,0,1,3.245.844,2.5,2.5,0,0,1,1.281,2.144,2.138,2.138,0,0,1-.772,1.688,2.847,2.847,0,0,1-1.93.668,3.991,3.991,0,0,1-1.649-.422,6.27,6.27,0,0,0-2.561-.739,8.151,8.151,0,0,0-4.877,1.723A26.418,26.418,0,0,0,366.97,134.977Z" transform="translate(-6.655 -1.661)"/><path class="a" d="M15.376,35.543v-4.59a2.069,2.069,0,0,0,.2-.48A37.01,37.01,0,0,1,25.185,9.962C29.96,4.794,35.821,1.756,42.972,1.711c10.632-.068,21.265-.052,31.9-.033A22.954,22.954,0,0,1,88.555,6.09c6.623,4.776,10.6,11.376,12.914,19.065.57,1.894.889,3.864,1.323,5.8v4.59a34.865,34.865,0,0,1-1.33,4,4.188,4.188,0,0,1-3.788,2.55,21.97,21.97,0,0,1-9.284-1.605,1.521,1.521,0,0,1-1.14-1.663c.053-5.535.026-11.071.025-16.607a4.565,4.565,0,0,0-.035-.98A1.66,1.66,0,0,0,85.457,19.8,1.613,1.613,0,0,0,83.8,21.233a6.3,6.3,0,0,0-.05,1.2c0,5.863.025,11.727-.026,17.591a3.7,3.7,0,0,0,.985,2.614,19.051,19.051,0,0,1,3.681,19.506c-2.432,7.106-7.649,11.3-14.967,12.926-2.85.633-5.374.362-7.455-1.985-1.518-1.713-3.2-3.278-4.8-4.925a1.069,1.069,0,0,1-.281-.668c-.022-2.1-.013-4.207-.013-6.284,6.805-1.663,9.236-7.445,8.487-12.132a10.6,10.6,0,0,0-9.749-8.682A10.445,10.445,0,0,0,49,48.251a9.972,9.972,0,0,0,.524,6.724,10.635,10.635,0,0,0,7.777,6.2c0,2.105.012,4.107-.014,6.108a1.37,1.37,0,0,1-.309.868c-1.776,1.827-3.6,3.608-5.374,5.435A5.588,5.588,0,0,1,46.347,75.3c-.646-.111-1.3-.174-1.94-.312a19.84,19.84,0,0,1-10.644-32.8,2.687,2.687,0,0,0,.634-1.609c.044-6.082.029-12.164.027-18.246a7.3,7.3,0,0,0-.038-.982A1.7,1.7,0,0,0,32.6,19.792a1.72,1.72,0,0,0-1.7,1.659c-.028.289-.012.582-.012.873,0,5.5-.028,11,.026,16.5a1.521,1.521,0,0,1-1.14,1.666A22.079,22.079,0,0,1,21.587,42.1c-2.962.021-4.583-1.114-5.525-3.942C15.778,37.305,15.6,36.416,15.376,35.543Zm40.392-7.511a3.488,3.488,0,0,0-3.54-3.412,3.533,3.533,0,0,0-3.371,3.486A3.492,3.492,0,0,0,52.415,31.5,3.441,3.441,0,0,0,55.768,28.032Zm13.489.04a3.457,3.457,0,0,0-3.374-3.452,3.529,3.529,0,0,0-3.516,3.446,3.455,3.455,0,0,0,3.5,3.428A3.407,3.407,0,0,0,69.257,28.072Z" transform="translate(-6.655 -1.661)"/><path class="a" d="M49.076,78.821c4.552-1.066,6.768-5.023,10-7.863,3.245,2.757,5.458,6.838,10,7.853.24,4.522-4.621,9.219-9.635,9.373C54.131,88.346,49.066,83.813,49.076,78.821Z" transform="translate(-6.655 -1.661)"/></svg>